<?xml version="1.0" encoding="UTF-8"?>
<svg version="1.1" xmlns="http://www.w3.org/2000/svg" width="227" height="227">
<path d="M0 0 C3.33484448 2.46488505 4.81126715 3.86760291 5.5 8 C4.95053191 11.29680856 3.77438872 13.20628159 2 16 C5.306384 21.01838521 8.63753482 26.01901016 12 31 C12.60199219 31.89332031 13.20398438 32.78664062 13.82421875 33.70703125 C15.80621051 36.51095135 17.49332794 38.64396018 20.3125 40.625 C26.46453409 41.48342336 31.92430068 39.38379955 37 36 C37.66 36 38.32 36 39 36 C39 35.34 39 34.68 39 34 C39.680625 33.443125 40.36125 32.88625 41.0625 32.3125 C41.701875 31.549375 42.34125 30.78625 43 30 C42.70241581 27.6618385 42.36760731 25.32817964 42 23 C43.34562399 20.05244268 44.08554544 18.45722728 47 17 C53.16652542 16.54322034 53.16652542 16.54322034 56.1953125 18.203125 C58 20 58 20 58.53125 22.375 C58.5209375 23.24125 58.510625 24.1075 58.5 25 C58.51546875 26.299375 58.51546875 26.299375 58.53125 27.625 C58 30 58 30 56.15625 31.8125 C54 33 54 33 51 33 C50.84337891 34.36898437 50.84337891 34.36898437 50.68359375 35.765625 C49.90621071 41.19227777 48.4514616 46.45395936 47.0625 51.75 C46.79759766 52.79027344 46.53269531 53.83054688 46.25976562 54.90234375 C46.00001953 55.89878906 45.74027344 56.89523438 45.47265625 57.921875 C45.23812744 58.82518555 45.00359863 59.72849609 44.76196289 60.65917969 C44 63 44 63 42 66 C39.06942931 66.28611093 36.35112474 66.37805361 33.41943359 66.34057617 C32.08763313 66.34123329 32.08763313 66.34123329 30.72892761 66.34190369 C27.78520957 66.33980852 24.84205642 66.3164433 21.8984375 66.29296875 C19.86105663 66.28737538 17.82367174 66.28310406 15.7862854 66.28010559 C10.41692008 66.26863643 5.04779719 66.23915143 -0.32147217 66.20599365 C-5.79761475 66.17533737 -11.27379639 66.16160977 -16.75 66.14648438 C-27.50010667 66.11428372 -38.2500332 66.06306238 -49 66 C-49.477698 64.57497797 -49.95469298 63.14972026 -50.43139648 61.72436523 C-50.69709946 60.93070053 -50.96280243 60.13703583 -51.23655701 59.31932068 C-54.07836339 50.68598411 -56.43201296 41.95403128 -58 33 C-59.32 33 -60.64 33 -62 33 C-62 32.34 -62 31.68 -62 31 C-62.66 31 -63.32 31 -64 31 C-65.52846661 27.94306678 -65.23242445 25.37015453 -65 22 C-64 19.625 -64 19.625 -62 18 C-59.26335666 17.03447432 -56.89046478 16.69070902 -54 17 C-51 18.875 -51 18.875 -49 22 C-48.9453125 24.12890625 -48.9453125 24.12890625 -49.125 26.4375 C-49.31848724 29.84587064 -49.31848724 29.84587064 -47.7421875 32.7734375 C-42.9091635 37.04296991 -37.24915814 40.41515153 -30.875 41.5625 C-26.74643991 40.75473824 -25.00087849 38.93109061 -22 36 C-21.505 35.01 -21.505 35.01 -21 34 C-20.34 34 -19.68 34 -19 34 C-18.34 32.35 -17.68 30.7 -17 29 C-16.34 29 -15.68 29 -15 29 C-14.89816406 28.44828125 -14.79632813 27.8965625 -14.69140625 27.328125 C-13.84495404 24.47792433 -12.49979966 22.27627179 -10.9375 19.75 C-10.38964844 18.85796875 -9.84179688 17.9659375 -9.27734375 17.046875 C-8.85582031 16.37140625 -8.43429688 15.6959375 -8 15 C-8.71542969 14.32904297 -8.71542969 14.32904297 -9.4453125 13.64453125 C-11.54989483 11.41832733 -11.85794589 10.0541633 -12 7 C-10.75 3.75 -10.75 3.75 -9 1 C-5.63633609 -0.1212213 -3.52465728 -0.42295887 0 0 Z " fill="#727354" transform="translate(117,17)"/>
<path d="M0 0 C9.24 0 18.48 0 28 0 C28 1.98 28 3.96 28 6 C25.69 6.66 23.38 7.32 21 8 C21 8.66 21 9.32 21 10 C20.34 10 19.68 10 19 10 C18.85304688 10.54785156 18.70609375 11.09570312 18.5546875 11.66015625 C15.75090576 21.57007448 11.85340891 31.11277899 7.5 40.4375 C5.5735377 44.60036018 3.89678494 48.82269663 2.3125 53.125 C-0.43747945 60.58324941 -3.32002915 67.98564613 -6.25 75.375 C-6.68658936 76.48762207 -7.12317871 77.60024414 -7.57299805 78.74658203 C-8.19428589 80.30675049 -8.19428589 80.30675049 -8.828125 81.8984375 C-9.3835498 83.30101807 -9.3835498 83.30101807 -9.95019531 84.73193359 C-11 87 -11 87 -13 89 C-15.68839385 89.26991906 -18.29141936 89.08737357 -21 89 C-24.66921356 81.89870556 -27.92212745 74.68722725 -31 67.3125 C-31.6974231 65.65516846 -31.6974231 65.65516846 -32.40893555 63.96435547 C-34.7973158 58.28322233 -37.16967409 52.59554938 -39.53347778 46.90415955 C-40.67831511 44.14910436 -41.82607278 41.39526921 -42.97387695 38.64144897 C-43.78877183 36.68205382 -44.59862119 34.72062818 -45.40820312 32.7590332 C-48.30264959 25.78813843 -51.40733724 18.99782948 -54.9050293 12.30615234 C-56 10 -56 10 -56 8 C-58.97 7.67 -61.94 7.34 -65 7 C-65 5.02 -65 3.04 -65 1 C-52.13 1 -39.26 1 -26 1 C-26 2.65 -26 4.3 -26 6 C-32.75 8 -32.75 8 -35 8 C-33.83740979 15.04194829 -31.93332287 21.35970029 -29.1875 27.9375 C-28.83002686 28.812854 -28.47255371 29.68820801 -28.10424805 30.59008789 C-25.91186662 35.92222497 -23.60454957 41.18808812 -21.15234375 46.40625 C-19.29979527 50.57605404 -17.76390145 54.86345337 -16.2109375 59.15234375 C-15.07016748 61.83499326 -13.78113309 63.72152961 -12 66 C-9.81175477 60.54188349 -7.62471504 55.08328597 -5.4387207 49.62426758 C-4.69717808 47.77290265 -3.95532416 45.92166238 -3.21313477 44.07055664 C-1.11044753 38.82589037 0.98473066 33.57833787 3.07122803 28.32720947 C3.91774906 26.20609491 4.77484742 24.08963007 5.63525391 21.97412109 C6.09206543 20.83152832 6.54887695 19.68893555 7.01953125 18.51171875 C7.60311401 17.07058716 7.60311401 17.07058716 8.19848633 15.6003418 C9.024823 12.91946702 9.16005412 10.7872146 9 8 C7.700625 7.855625 6.40125 7.71125 5.0625 7.5625 C1.125 7.125 1.125 7.125 0 6 C0 4.02 0 2.04 0 0 Z " fill="#767658" transform="translate(115,124)"/>
<path d="M0 0 C11.55 0 23.1 0 35 0 C35 1.98 35 3.96 35 6 C29.25 8 29.25 8 27 8 C26.93053429 17.07501568 26.87720633 26.14994005 26.84456348 35.22516346 C26.82889769 39.43902276 26.80764297 43.65270036 26.77368164 47.86645508 C26.74112043 51.93186419 26.72315387 55.99709836 26.71536827 60.06262779 C26.7098189 61.61481163 26.69898245 63.16698573 26.68280983 64.71909523 C26.66107793 66.89082259 26.6580312 69.06182424 26.65942383 71.23364258 C26.65276199 72.47052322 26.64610016 73.70740387 26.63923645 74.98176575 C26.74606481 77.97035746 26.74606481 77.97035746 28.35331726 79.84867859 C30.44717926 81.3126571 32.59700681 82.1557051 35 83 C35 84.98 35 86.96 35 89 C23.45 89 11.9 89 0 89 C0 87.02 0 85.04 0 83 C5.75 81 5.75 81 8 81 C8 56.91 8 32.82 8 8 C5.69 7.67 3.38 7.34 1 7 C0.67 6.67 0.34 6.34 0 6 C0 4.02 0 2.04 0 0 Z " fill="#757558" transform="translate(150,124)"/>
<path d="M0 0 C1.29750183 -0.00744736 1.29750183 -0.00744736 2.62121582 -0.01504517 C5.49561342 -0.0297047 8.36995586 -0.03647467 11.24438477 -0.04199219 C13.23356631 -0.04774002 15.22274783 -0.05349779 17.21192932 -0.05926514 C21.38754536 -0.06978559 25.56314209 -0.07562158 29.73876953 -0.07910156 C35.10041172 -0.08459192 40.46180066 -0.10862713 45.8233633 -0.13707352 C49.93334204 -0.15565685 54.04325923 -0.16090317 58.15327644 -0.16243744 C60.13051808 -0.16547369 62.10775838 -0.17353466 64.08495903 -0.18662262 C66.84590041 -0.20359534 69.60621576 -0.20182468 72.3671875 -0.1953125 C73.19064163 -0.20452728 74.01409576 -0.21374207 74.86250305 -0.22323608 C77.13572693 -0.20635986 77.13572693 -0.20635986 80.74829102 0.16113281 C82.81349734 3.2589423 83.04306126 4.11518091 83.06079102 7.66113281 C83.07754883 8.43457031 83.09430664 9.20800781 83.11157227 10.00488281 C82.74829102 12.16113281 82.74829102 12.16113281 81.74403381 13.77362061 C78.57716977 15.97533845 75.17365693 15.56045516 71.453125 15.51757812 C70.1844458 15.52064468 70.1844458 15.52064468 68.89013672 15.52377319 C66.09133362 15.52678407 63.29311794 15.50829597 60.49438477 15.48925781 C58.55290371 15.4862008 56.61142046 15.48432424 54.66993713 15.48358154 C50.60034803 15.47897665 46.53095661 15.46454275 42.46142578 15.44238281 C37.23668559 15.41408154 32.01210108 15.40316963 26.78729153 15.39870071 C22.77853325 15.39455029 18.76980666 15.38473628 14.76106453 15.37282562 C12.83407915 15.36711612 10.90709072 15.36235967 8.98010063 15.35855865 C6.2913664 15.35170784 3.60275705 15.33808148 0.9140625 15.32226562 C-0.28835335 15.32058884 -0.28835335 15.32058884 -1.51506042 15.31887817 C-7.02232262 15.27582599 -7.02232262 15.27582599 -9.25170898 14.16113281 C-9.27856837 12.01536645 -9.29803986 9.86950636 -9.31420898 7.72363281 C-9.32581055 6.52867188 -9.33741211 5.33371094 -9.34936523 4.10253906 C-9.15612585 -1.71783122 -4.69670271 0.00636025 0 0 Z " fill="#747457" transform="translate(77.251708984375,89.8388671875)"/>
<path d="M0 0 C9.24 0 18.48 0 28 0 C28 1.98 28 3.96 28 6 C25.69 6.66 23.38 7.32 21 8 C21 8.66 21 9.32 21 10 C20.34 10 19.68 10 19 10 C18.85304687 10.54785156 18.70609375 11.09570312 18.5546875 11.66015625 C15.75090576 21.57007448 11.85340891 31.11277899 7.5 40.4375 C5.13643144 45.52826305 3.18119935 50.72904535 1.24365234 55.99194336 C-0.9996288 62.06804308 -3.45126175 68.04542568 -6 74 C-8 70.125 -8 70.125 -8 69 C-10.21081851 68.89459074 -10.21081851 68.89459074 -13 70 C-10.20247374 61.05608393 -6.63254856 52.43250098 -3.125 43.75 C-1.01775204 38.52221286 1.08386732 33.29224366 3.17468262 28.05786133 C3.96293399 26.09242105 4.76078568 24.13109884 5.55957031 22.16992188 C6.2455127 20.45385742 6.2455127 20.45385742 6.9453125 18.703125 C7.34508301 17.71473633 7.74485352 16.72634766 8.15673828 15.70800781 C9.00811626 12.97393585 9.17033284 10.84319828 9 8 C7.700625 7.855625 6.40125 7.71125 5.0625 7.5625 C1.125 7.125 1.125 7.125 0 6 C0 4.02 0 2.04 0 0 Z " fill="#7D7B62" transform="translate(115,124)"/>
<path d="M0 0 C9.24 0 18.48 0 28 0 C28 1.98 28 3.96 28 6 C25.69 6.66 23.38 7.32 21 8 C21 8.66 21 9.32 21 10 C20.34 10 19.68 10 19 10 C18.81824219 10.64066406 18.63648438 11.28132812 18.44921875 11.94140625 C16.93729955 17.14395897 15.24999329 22.07144327 13 27 C12.67 26.34 12.34 25.68 12 25 C11.34 25 10.68 25 10 25 C10 23.35 10 21.7 10 20 C9.01 20.33 8.02 20.66 7 21 C7.2165625 20.09507812 7.2165625 20.09507812 7.4375 19.171875 C7.623125 18.37265625 7.80875 17.5734375 8 16.75 C8.185625 15.96109375 8.37125 15.1721875 8.5625 14.359375 C9.12154828 11.74443998 9.12154828 11.74443998 9 8 C7.700625 7.855625 6.40125 7.71125 5.0625 7.5625 C1.125 7.125 1.125 7.125 0 6 C0 4.02 0 2.04 0 0 Z " fill="#8A8970" transform="translate(115,124)"/>
<path d="M0 0 C1.9375 1.5 1.9375 1.5 3 4 C3.03403115 6.27583347 2.93365109 8.5307976 2.83984375 10.8046875 C3.07954901 14.09040349 4.69820828 15.77013928 7 18 C6.67 18.66 6.34 19.32 6 20 C4.35 20 2.7 20 1 20 C0.67 21.65 0.34 23.3 0 25 C-0.66 25 -1.32 25 -2 25 C-1.67 25.66 -1.34 26.32 -1 27 C-0.01 27 0.98 27 2 27 C1.34 27.99 0.68 28.98 0 30 C0.33 30.66 0.66 31.32 1 32 C0.0625 34.125 0.0625 34.125 -1 36 C-1.27714844 34.81921875 -1.55429687 33.6384375 -1.83984375 32.421875 C-2.2057143 30.86457984 -2.57160054 29.30728837 -2.9375 27.75 C-3.11990234 26.97269531 -3.30230469 26.19539063 -3.49023438 25.39453125 C-3.66748047 24.64042969 -3.84472656 23.88632812 -4.02734375 23.109375 C-4.27085571 22.07248535 -4.27085571 22.07248535 -4.51928711 21.01464844 C-4.9985662 19.00600899 -5.49546602 17.00243058 -6 15 C-7.32 15 -8.64 15 -10 15 C-10 14.34 -10 13.68 -10 13 C-10.66 13 -11.32 13 -12 13 C-13.52846661 9.94306678 -13.23242445 7.37015453 -13 4 C-9.87984472 -1.64599527 -5.88199402 -1.3654629 0 0 Z " fill="#8C8C71" transform="translate(65,35)"/>
<path d="M0 0 C2.1953125 1.203125 2.1953125 1.203125 4 3 C4.53125 5.375 4.53125 5.375 4.5 8 C4.5103125 8.86625 4.520625 9.7325 4.53125 10.625 C4 13 4 13 2.15625 14.8125 C0 16 0 16 -3 16 C-3.33 18.31 -3.66 20.62 -4 23 C-4.99 22.34 -5.98 21.68 -7 21 C-7.391875 21.515625 -7.78375 22.03125 -8.1875 22.5625 C-8.785625 23.036875 -9.38375 23.51125 -10 24 C-12.5 23.6875 -12.5 23.6875 -15 23 C-15.99 23 -16.98 23 -18 23 C-18.33 22.01 -18.66 21.02 -19 20 C-17.68 19.67 -16.36 19.34 -15 19 C-15 18.34 -15 17.68 -15 17 C-14.319375 16.443125 -13.63875 15.88625 -12.9375 15.3125 C-12.298125 14.549375 -11.65875 13.78625 -11 13 C-11.29758419 10.6618385 -11.63239269 8.32817964 -12 6 C-9.21306374 -0.10471753 -6.50222178 -0.44842909 0 0 Z " fill="#78775B" transform="translate(171,34)"/>
<path d="M0 0 C3.32274404 2.45594125 4.77618008 3.9256644 5.625 8 C4.80695681 11.92660732 3.00495843 13.44578533 0 16 C0 15.34 0 14.68 0 14 C-1.94603274 13.40929986 -1.94603274 13.40929986 -4 13 C-4.33 13.33 -4.66 13.66 -5 14 C-4.01 14.66 -3.02 15.32 -2 16 C-2.66 16 -3.32 16 -4 16 C-5.4563173 19.44272214 -5.4563173 19.44272214 -6.3125 23.0625 C-7 25 -7 25 -8.84765625 26.046875 C-9.57855469 26.27890625 -10.30945313 26.5109375 -11.0625 26.75 C-12.16271484 27.11351562 -12.16271484 27.11351562 -13.28515625 27.484375 C-13.85105469 27.65453125 -14.41695313 27.8246875 -15 28 C-13.35821735 23.22390502 -10.73453298 19.20617096 -8 15 C-8.47695312 14.55269531 -8.95390625 14.10539062 -9.4453125 13.64453125 C-11.54989483 11.41832733 -11.85794589 10.0541633 -12 7 C-10.75 3.75 -10.75 3.75 -9 1 C-5.63633609 -0.1212213 -3.52465728 -0.42295887 0 0 Z " fill="#7C7C61" transform="translate(117,17)"/>
<path d="M0 0 C0 3.66666667 0 7.33333333 0 11 C0.66 10.67 1.32 10.34 2 10 C3.125 12.3125 3.125 12.3125 4 15 C3.01 16.485 3.01 16.485 2 18 C1.67 17.34 1.34 16.68 1 16 C0.01 16.33 -0.98 16.66 -2 17 C-2 16.34 -2 15.68 -2 15 C-3.65 15 -5.3 15 -7 15 C-7 14.34 -7 13.68 -7 13 C-7.66 13 -8.32 13 -9 13 C-10.52846661 9.94306678 -10.23242445 7.37015453 -10 4 C-7.87039216 -0.88557093 -4.92153042 -0.37143626 0 0 Z " fill="#79795C" transform="translate(62,35)"/>
<path d="M0 0 C2.64 0.99 5.28 1.98 8 3 C8 4.98 8 6.96 8 9 C-3.55 9 -15.1 9 -27 9 C-27 3 -27 3 -26 2 C-24.33382885 1.95936168 -22.66611905 1.957279 -21 2 C-20.67 2.99 -20.34 3.98 -20 5 C-16.23699626 6.25433458 -12.72789091 6.10695422 -8.8125 6.0625 C-7.68811523 6.05573242 -7.68811523 6.05573242 -6.54101562 6.04882812 C-4.69397617 6.03706354 -2.84697787 6.01912865 -1 6 C-0.67 4.02 -0.34 2.04 0 0 Z " fill="#A6A488" transform="translate(177,204)"/>
<path d="M0 0 C12.87 0 25.74 0 39 0 C39 1.65 39 3.3 39 5 C38 6 38 6 35.4375 6.0625 C34.2309375 6.0315625 34.2309375 6.0315625 33 6 C33.8125 4.0625 33.8125 4.0625 35 2 C35.99 1.67 36.98 1.34 38 1 C28.1 1 18.2 1 8 1 C6.60229416 4.74691447 6.60229416 4.74691447 8 7 C5.36 6.67 2.72 6.34 0 6 C0 4.02 0 2.04 0 0 Z " fill="#A7A590" transform="translate(50,125)"/>
<path d="M0 0 C0.33 0 0.66 0 1 0 C1.33 1.65 1.66 3.3 2 5 C2.66 4.34 3.32 3.68 4 3 C4.99 3 5.98 3 7 3 C6.37321829 6.66172475 5.35548154 9.8818995 3.9375 13.3125 C3.57527344 14.19550781 3.21304688 15.07851562 2.83984375 15.98828125 C2.42412109 16.98408203 2.42412109 16.98408203 2 18 C0 14.125 0 14.125 0 13 C-2.21081851 12.89459074 -2.21081851 12.89459074 -5 14 C-3.45730076 9.27934033 -1.92205381 4.58335908 0 0 Z " fill="#94937A" transform="translate(107,180)"/>
<path d="M0 0 C11.55 0 23.1 0 35 0 C35 1.98 35 3.96 35 6 C34 7 34 7 31.4375 7.0625 C30.2309375 7.0315625 30.2309375 7.0315625 29 7 C29.99 6.01 30.98 5.02 32 4 C28.89448334 4 27.64738916 4.5393715 25 6 C25 5.34 25 4.68 25 4 C21.91526116 2.22034298 19.56067048 1.71563429 16.015625 1.5859375 C14.61376953 1.52792969 14.61376953 1.52792969 13.18359375 1.46875 C12.21550781 1.4378125 11.24742187 1.406875 10.25 1.375 C8.77466797 1.31699219 8.77466797 1.31699219 7.26953125 1.2578125 C4.84653963 1.16371574 2.42355204 1.07807672 0 1 C0 0.67 0 0.34 0 0 Z " fill="#C1BFAB" transform="translate(150,124)"/>
<path d="M0 0 C0.99 0.66 1.98 1.32 3 2 C3.3125 5.5 3.3125 5.5 3 9 C1 11 1 11 -0.9453125 11.1953125 C-2.96354167 11.13020833 -4.98177083 11.06510417 -7 11 C-7.66 9.35 -8.32 7.7 -9 6 C-8.34 6 -7.68 6 -7 6 C-7 6.99 -7 7.98 -7 9 C-6.5875 8.030625 -6.175 7.06125 -5.75 6.0625 C-4 3 -4 3 -1.8125 2.125 C-0.9153125 2.063125 -0.9153125 2.063125 0 2 C0 1.34 0 0.68 0 0 Z " fill="#7C7B60" transform="translate(101,202)"/>
<path d="M0 0 C0.66 0.33 1.32 0.66 2 1 C2.625 3.0625 2.625 3.0625 3 5 C4.32 5.33 5.64 5.66 7 6 C6.49202991 10.3177458 5.80317221 14.03302114 4 18 C3.67 17.34 3.34 16.68 3 16 C2.34 16 1.68 16 1 16 C1 14.35 1 12.7 1 11 C0.01 11.33 -0.98 11.66 -2 12 C-1.7834375 11.07767578 -1.7834375 11.07767578 -1.5625 10.13671875 C-1.376875 9.32847656 -1.19125 8.52023438 -1 7.6875 C-0.814375 6.88699219 -0.62875 6.08648437 -0.4375 5.26171875 C0.09495823 2.89304062 0.09495823 2.89304062 0 0 Z " fill="#8F8D77" transform="translate(124,133)"/>
<path d="M0 0 C7.26 0 14.52 0 22 0 C22 0.33 22 0.66 22 1 C20.73542969 1.14695312 20.73542969 1.14695312 19.4453125 1.296875 C17.80175781 1.52117187 17.80175781 1.52117187 16.125 1.75 C15.03445312 1.88921875 13.94390625 2.0284375 12.8203125 2.171875 C9.87221871 2.70935435 9.87221871 2.70935435 8.6171875 5.078125 C8.41351563 5.71234375 8.20984375 6.3465625 8 7 C1.125 6.125 1.125 6.125 0 5 C0 3.35 0 1.7 0 0 Z " fill="#75745C" transform="translate(150,125)"/>
<path d="M0 0 C2.5625 2.25 2.5625 2.25 5 5 C4.8125 7.3125 4.8125 7.3125 4 9 C3.34 9 2.68 9 2 9 C1.34 10.65 0.68 12.3 0 14 C-1.32 13.67 -2.64 13.34 -4 13 C-2.66666667 10.33333333 -1.33333333 7.66666667 0 5 C-0.66 4.34 -1.32 3.68 -2 3 C-1.34 2.01 -0.68 1.02 0 0 Z " fill="#6B6B4C" transform="translate(113,28)"/>
<path d="M0 0 C-0.66 0 -1.32 0 -2 0 C-3.4563173 3.44272214 -3.4563173 3.44272214 -4.3125 7.0625 C-5 9 -5 9 -6.84765625 10.046875 C-7.94400391 10.39492188 -7.94400391 10.39492188 -9.0625 10.75 C-10.16271484 11.11351562 -10.16271484 11.11351562 -11.28515625 11.484375 C-12.13400391 11.73960938 -12.13400391 11.73960938 -13 12 C-11.48268615 7.44805844 -9.06964403 3.65996019 -6 0 C-3.50907189 -1.24546405 -2.58919267 -0.7767578 0 0 Z " fill="#737359" transform="translate(115,33)"/>
<path d="M0 0 C0.66 0.33 1.32 0.66 2 1 C2.40729228 3.32156597 2.74438677 5.6568787 3 8 C2.21625 8.309375 1.4325 8.61875 0.625 8.9375 C-1.92330128 9.92875038 -1.92330128 9.92875038 -4 11 C-4.35233161 5.62694301 -4.35233161 5.62694301 -4 3 C-2 1 -2 1 0 0 Z " fill="#727256" transform="translate(112,175)"/>
<path d="M0 0 C-0.99 0.495 -0.99 0.495 -2 1 C-2.33 1.99 -2.66 2.98 -3 4 C-3.99 4 -4.98 4 -6 4 C-6.33 4.99 -6.66 5.98 -7 7 C-8.32 7 -9.64 7 -11 7 C-11.33 7.99 -11.66 8.98 -12 10 C-11.69393785 6.6333163 -11.2999963 4.43845613 -9.375 1.625 C-6.16391273 -0.57205971 -3.80341249 -0.29257019 0 0 Z " fill="#96947B" transform="translate(171,34)"/>
<path d="M0 0 C3.375 0.25 3.375 0.25 7 1 C8.4375 3.0625 8.4375 3.0625 9 5 C7.33333333 6.66666667 5.66666667 8.33333333 4 10 C3.83723958 7.98177083 3.67447917 5.96354167 3.51171875 3.9453125 C3.12606964 1.60480784 3.12606964 1.60480784 0 0 Z " fill="#939378" transform="translate(58,34)"/>
<path d="M0 0 C2.31 0.66 4.62 1.32 7 2 C5.515 4.475 5.515 4.475 4 7 C2.35 6.67 0.7 6.34 -1 6 C-0.67 4.02 -0.34 2.04 0 0 Z " fill="#8C8B71" transform="translate(177,204)"/>
<path d="M0 0 C0.61875 0.804375 1.2375 1.60875 1.875 2.4375 C3.74164041 5.03874519 3.74164041 5.03874519 6 6 C5.67 7.65 5.34 9.3 5 11 C3 9 3 9 1 6 C0.34 6.99 -0.32 7.98 -1 9 C-2.0326802 6.21176345 -2.04509293 5.1322726 -1.0625 2.25 C-0.711875 1.5075 -0.36125 0.765 0 0 Z " fill="#939177" transform="translate(111,170)"/>
<path d="M0 0 C0.99 0.33 1.98 0.66 3 1 C4.1875 3.5625 4.1875 3.5625 5 6 C4.34 6.66 3.68 7.32 3 8 C2.34 8 1.68 8 1 8 C-0.42944945 5.64561267 -1.08661261 4.51967567 -0.625 1.75 C-0.41875 1.1725 -0.2125 0.595 0 0 Z " fill="#848368" transform="translate(69,150)"/>
<path d="M0 0 C4 4.625 4 4.625 4 8 C3.01 7.67 2.02 7.34 1 7 C-0.33106622 6.65772583 -1.66400079 6.32248257 -3 6 C-3 5.34 -3 4.68 -3 4 C-2.34 4 -1.68 4 -1 4 C-0.67 2.68 -0.34 1.36 0 0 Z " fill="#858568" transform="translate(118,33)"/>
<path d="M0 0 C1.32 0.66 2.64 1.32 4 2 C3.01 2.33 2.02 2.66 1 3 C-0.22969878 6.51190809 -0.22969878 6.51190809 -1 10 C-1.99 9.67 -2.98 9.34 -4 9 C-2.80100302 5.9168649 -1.52299523 2.93720508 0 0 Z " fill="#6D6D50" transform="translate(121,155)"/>
<path d="M0 0 C0 3.01490557 -0.51952735 4.86864114 -1.5 7.6875 C-1.91765625 8.89986328 -1.91765625 8.89986328 -2.34375 10.13671875 C-2.5603125 10.75160156 -2.776875 11.36648437 -3 12 C-4.32 10.68 -5.64 9.36 -7 8 C-6.01 7.34 -5.02 6.68 -4 6 C-3.31246699 4.34183216 -2.64438717 2.67540664 -2 1 C-1.34 0.67 -0.68 0.34 0 0 Z " fill="#95947F" transform="translate(124,157)"/>
<path d="M0 0 C1.2065625 0.0309375 1.2065625 0.0309375 2.4375 0.0625 C1.4475 2.3725 0.4575 4.6825 -0.5625 7.0625 C-1.2225 7.0625 -1.8825 7.0625 -2.5625 7.0625 C-2.94383299 5.0710944 -3.27575582 3.06970923 -3.5625 1.0625 C-2.5625 0.0625 -2.5625 0.0625 0 0 Z " fill="#6B6C50" transform="translate(59.5625,34.9375)"/>
<path d="M0 0 C0.66 0.33 1.32 0.66 2 1 C1.34 3.31 0.68 5.62 0 8 C-0.33 7.34 -0.66 6.68 -1 6 C-3.01669827 4.86649466 -3.01669827 4.86649466 -5 4 C-3 2 -3 2 0 0 Z " fill="#838267" transform="translate(132,133)"/>
<path d="M0 0 C1.98 0 3.96 0 6 0 C6 0.99 6 1.98 6 3 C3 5 3 5 0 5 C0 3.35 0 1.7 0 0 Z " fill="#706E58" transform="translate(150,125)"/>
<path d="M0 0 C0.99 0.99 1.98 1.98 3 3 C1.48601545 6.78496138 0.9855604 7.0072198 -3 9 C-2.01 6.03 -1.02 3.06 0 0 Z " fill="#919075" transform="translate(118,153)"/>
<path d="M0 0 C1.134375 0.020625 2.26875 0.04125 3.4375 0.0625 C3.1075 1.0525 2.7775 2.0425 2.4375 3.0625 C2.4375 2.4025 2.4375 1.7425 2.4375 1.0625 C1.7775 1.0625 1.1175 1.0625 0.4375 1.0625 C0.7675 2.0525 1.0975 3.0425 1.4375 4.0625 C0.1175 4.3925 -1.2025 4.7225 -2.5625 5.0625 C-3.2225 3.7425 -3.8825 2.4225 -4.5625 1.0625 C-3.5625 0.0625 -3.5625 0.0625 0 0 Z " fill="#6A6750" transform="translate(84.5625,125.9375)"/>
<path d="M0 0 C1.65 0.33 3.3 0.66 5 1 C4.67 1.99 4.34 2.98 4 4 C2.02 4.33 0.04 4.66 -2 5 C-2 4.01 -2 3.02 -2 2 C-1.34 2 -0.68 2 0 2 C0 1.34 0 0.68 0 0 Z " fill="#7A7A60" transform="translate(69,77)"/>
<path d="M0 0 C0.33 0.66 0.66 1.32 1 2 C0.34 2 -0.32 2 -1 2 C-0.67 3.32 -0.34 4.64 0 6 C-1.98 6.99 -1.98 6.99 -4 8 C-4.66 6.68 -5.32 5.36 -6 4 C-4.68 3.67 -3.36 3.34 -2 3 C-2 2.34 -2 1.68 -2 1 C-1.34 0.67 -0.68 0.34 0 0 Z " fill="#8C8B74" transform="translate(158,50)"/>
<path d="M0 0 C-0.33 1.65 -0.66 3.3 -1 5 C-3.31 4.67 -5.62 4.34 -8 4 C-3.375 0 -3.375 0 0 0 Z " fill="#919075" transform="translate(159,127)"/>
<path d="M0 0 C1.65 0 3.3 0 5 0 C5.042721 1.66611905 5.04063832 3.33382885 5 5 C4 6 4 6 1.4375 6.0625 C0.2309375 6.0315625 0.2309375 6.0315625 -1 6 C-0.01 5.01 0.98 4.02 2 3 C1.34 2.01 0.68 1.02 0 0 Z " fill="#9A9985" transform="translate(180,125)"/>
<path d="M0 0 C1.5625 1.1875 1.5625 1.1875 3 3 C2.6875 5.6875 2.6875 5.6875 2 8 C1.34 7.34 0.68 6.68 0 6 C-0.99 6.33 -1.98 6.66 -3 7 C-3 5 -3 5 -1 3 C-0.67 2.01 -0.34 1.02 0 0 Z " fill="#67684A" transform="translate(63,45)"/>
<path d="M0 0 C0.66 0.99 1.32 1.98 2 3 C1.125 5.6875 1.125 5.6875 0 8 C-0.66 8 -1.32 8 -2 8 C-1.67 7.01 -1.34 6.02 -1 5 C-1.66 4.34 -2.32 3.68 -3 3 C-2.01 2.01 -1.02 1.02 0 0 Z " fill="#6E6E50" transform="translate(88,186)"/>
<path d="M0 0 C0.99 0.33 1.98 0.66 3 1 C2.34 2.32 1.68 3.64 1 5 C-0.32 5 -1.64 5 -3 5 C-1.125 1.125 -1.125 1.125 0 0 Z " fill="#6B6A4C" transform="translate(88,165)"/>
<path d="M0 0 C0.33 0 0.66 0 1 0 C1.33 2.97 1.66 5.94 2 9 C0.02 9.99 0.02 9.99 -2 11 C-2 9.35 -2 7.7 -2 6 C-1.34 6 -0.68 6 0 6 C0 4.02 0 2.04 0 0 Z " fill="#9E9B83" transform="translate(79,133)"/>
<path d="M0 0 C0.99 0 1.98 0 3 0 C3 0.99 3 1.98 3 3 C0 5 0 5 -4 5 C-4 4.34 -4 3.68 -4 3 C-3.01 3 -2.02 3 -1 3 C-0.67 2.01 -0.34 1.02 0 0 Z " fill="#9F9D88" transform="translate(171,45)"/>
<path d="M0 0 C0.66 0.99 1.32 1.98 2 3 C1.01 3.495 1.01 3.495 0 4 C0.33 4.66 0.66 5.32 1 6 C-0.98 6.99 -2.96 7.98 -5 9 C-3.7508258 5.54074837 -2.32472205 2.85306797 0 0 Z " fill="#B0AC99" transform="translate(107,36)"/>
<path d="M0 0 C2.475 0.495 2.475 0.495 5 1 C4.67 1.99 4.34 2.98 4 4 C2.68 4 1.36 4 0 4 C0 2.68 0 1.36 0 0 Z " fill="#6A694F" transform="translate(51,126)"/>
<path d="M0 0 C0.33 1.32 0.66 2.64 1 4 C1.66 4 2.32 4 3 4 C3 5.65 3 7.3 3 9 C2.34 9 1.68 9 1 9 C-0.4783226 6.04335481 -0.06032783 3.25770263 0 0 Z " fill="#9E9A88" transform="translate(52,39)"/>
<path d="M0 0 C0.66 1.32 1.32 2.64 2 4 C0.68 4.99 -0.64 5.98 -2 7 C-2 6.34 -2 5.68 -2 5 C-2.66 4.67 -3.32 4.34 -4 4 C-2.68 2.68 -1.36 1.36 0 0 Z " fill="#8A8A72" transform="translate(119,26)"/>
<path d="" fill="#FFFFFF" transform="translate(0,0)"/>
<path d="" fill="#FFFFFF" transform="translate(0,0)"/>
<path d="" fill="#FFFFFF" transform="translate(0,0)"/>
<path d="" fill="#FFFFFF" transform="translate(0,0)"/>
<path d="" fill="#FFFFFF" transform="translate(0,0)"/>
<path d="" fill="#FFFFFF" transform="translate(0,0)"/>
<path d="" fill="#FFFFFF" transform="translate(0,0)"/>
<path d="" fill="#FFFFFF" transform="translate(0,0)"/>
<path d="" fill="#FFFFFF" transform="translate(0,0)"/>
<path d="" fill="#FFFFFF" transform="translate(0,0)"/>
<path d="" fill="#FFFFFF" transform="translate(0,0)"/>
<path d="" fill="#FFFFFF" transform="translate(0,0)"/>
</svg>
